<?xml version="1.0" encoding="utf-8"?>
<!-- Generator: Adobe Illustrator 16.0.0, SVG Export Plug-In . SVG Version: 6.00 Build 0)  -->
<!DOCTYPE svg PUBLIC "-//W3C//DTD SVG 1.1//EN" "http://www.w3.org/Graphics/SVG/1.1/DTD/svg11.dtd">
<svg version="1.1" id="Capa_1" xmlns="http://www.w3.org/2000/svg" xmlns:xlink="http://www.w3.org/1999/xlink" x="0px" y="0px"
	 width="286.434px" height="33.383px" viewBox="0 0 286.434 33.383" enable-background="new 0 0 286.434 33.383"
	 xml:space="preserve">
<g>
	<rect y="0.608" fill="#008B8F" width="5.84" height="32.774"/>
	<g>
		<defs>
			<rect id="SVGID_1_" width="286.432" height="33.383"/>
		</defs>
		<clipPath id="SVGID_2_">
			<use xlink:href="#SVGID_1_"  overflow="visible"/>
		</clipPath>
		<path clip-path="url(#SVGID_2_)" fill="#008B8F" d="M60.17,33.383h-6.273V12.757c0-2.308-0.767-3.991-2.338-5.15
			c-1.668-1.226-4.61-1.821-7.553-1.821c-3.442,0-6.771,0.865-8.719,2.647c-1.979,1.807-2.936,4.132-2.936,7.106v17.844h-6.279
			V1.246h6.279v2.151c2.716-1.905,7.069-2.864,11.594-2.864c4.383,0,8.721,0.952,11.466,2.843c3.155,2.07,4.759,5.039,4.759,8.799
			V33.383z"/>
	</g>
	<path fill="#1E1E1C" d="M156.119,7.753l6.313,11.408h-12.865L156.119,7.753z M153.247,0.593l-17.7,32.787l6.405-0.006l5.059-9.473
		h17.848l4.973,9.479l6.227-0.012L159.045,0.593H153.247z"/>
	<g>
		<defs>
			<rect id="SVGID_3_" width="286.432" height="33.383"/>
		</defs>
		<clipPath id="SVGID_4_">
			<use xlink:href="#SVGID_3_"  overflow="visible"/>
		</clipPath>
		<path clip-path="url(#SVGID_4_)" fill="#1E1E1C" d="M214.02,33.383c-5.299,0-10.743-1.007-13.405-3.021
			c-2.872-2.145-4.332-5.5-4.332-9.973V0.303h5.706v20.039c0,5.749,4.687,8.308,12.031,8.308c7.335,0,12.027-2.505,12.027-8.131
			V0.303h5.705v20.171c0,4.422-1.479,7.753-4.394,9.907C224.705,32.376,219.272,33.383,214.02,33.383"/>
	</g>
	<polygon fill="#1E1E1C" points="109.621,0.604 109.621,14.003 86.113,14.003 86.113,0.604 80.407,0.604 80.407,33.383 
		86.113,33.383 86.113,18.728 109.621,18.728 109.621,33.383 115.324,33.383 115.324,0.604 	"/>
	<g>
		<defs>
			<rect id="SVGID_5_" width="286.432" height="33.383"/>
		</defs>
		<clipPath id="SVGID_6_">
			<use xlink:href="#SVGID_5_"  overflow="visible"/>
		</clipPath>
		<path clip-path="url(#SVGID_6_)" fill="#1E1E1C" d="M269.971,33.383c-4.712,0-9.301-0.749-12.25-2.229
			c-3.818-1.971-5.742-5.048-5.742-9.154v-2.395h5.695v2.223c0,2.931,1.926,6.822,12.35,6.822c2.794,0,5.844-0.356,7.65-1.066
			c2.111-0.83,3.064-1.953,3.064-3.631c0-1.142-0.317-1.945-0.949-2.466c-0.441-0.381-1.375-0.917-3.437-1.433
			c-0.673-0.174-3.161-0.557-7.851-1.401c-4.534-0.824-8.268-1.579-9.965-2.319c-3.564-1.627-5.438-4.143-5.438-7.301
			c0-4.119,3.347-9.032,15.903-9.032c13.035,0,16.612,5.791,16.719,10.659l0.041,1.681h-5.639l-0.105-1.558
			c-0.163-2.433-1.109-4.023-2.877-4.868c-1.602-0.791-4.801-1.184-8.139-1.184c-9.492,0-10.195,3.128-10.195,4.302
			c0,1.375,0.674,2.292,2.192,2.99c0.829,0.381,3.353,0.955,7.28,1.563c6.447,1.01,11.393,2.073,13.668,3.263
			c2.93,1.501,4.486,4.008,4.486,7.232c0,2.315-1.021,5.506-5.922,7.564C277.77,32.799,273.754,33.383,269.971,33.383"/>
	</g>
</g>
</svg>
